<?xml version="1.0" encoding="iso-8859-1"?>
<!-- Generator: Adobe Illustrator 19.0.0, SVG Export Plug-In . SVG Version: 6.00 Build 0)  -->
<svg version="1.1" id="Capa_1" xmlns="http://www.w3.org/2000/svg" xmlns:xlink="http://www.w3.org/1999/xlink" x="0px" y="0px"
	 viewBox="0 0 512 512" style="enable-background:new 0 0 512 512;" xml:space="preserve">
<g>
	<g>
		<path d="M344.309,37.204c-26.222,0-47.554,21.332-47.554,47.554s21.332,47.555,47.554,47.555
			c26.221,0,47.554-21.333,47.554-47.555S370.531,37.204,344.309,37.204z M344.309,112.313c-15.193,0-27.554-12.362-27.554-27.555
			c0-15.194,12.361-27.554,27.554-27.554s27.554,12.361,27.554,27.554C371.863,99.952,359.502,112.313,344.309,112.313z"/>
	</g>
</g>
<g>
	<g>
		<path d="M344.309,0c-5.523,0-10,4.477-10,10v10.952c0,5.522,4.477,10,10,10c5.522,0,10-4.477,10-10V10
			C354.309,4.477,349.832,0,344.309,0z"/>
	</g>
</g>
<g>
	<g>
		<path d="M344.309,138.564c-5.523,0-10,4.477-10,10v10.953c0,5.523,4.477,10,10,10c5.522,0,10-4.478,10-10v-10.953
			C354.309,143.041,349.832,138.564,344.309,138.564z"/>
	</g>
</g>
<g>
	<g>
		<path d="M419.066,74.758h-10.953c-5.523,0-10,4.478-10,10c0,5.523,4.477,10,10,10h10.953c5.523,0,10-4.478,10-10
			S424.589,74.758,419.066,74.758z"/>
	</g>
</g>
<g>
	<g>
		<path d="M280.503,74.758H269.55c-5.523,0-10,4.478-10,10c0,5.523,4.477,10,10,10h10.953c5.523,0,10-4.478,10-10
			S286.026,74.758,280.503,74.758z"/>
	</g>
</g>
<g>
	<g>
		<path d="M411.224,17.843c-3.906-3.904-10.238-3.904-14.143,0l-8.767,8.768c-3.905,3.905-3.905,10.237,0,14.142
			c1.952,1.953,4.512,2.929,7.071,2.929c2.559,0,5.119-0.977,7.071-2.929l8.768-8.767C415.129,28.08,415.129,21.748,411.224,17.843z
			"/>
	</g>
</g>
<g>
	<g>
		<path d="M300.303,128.763c-3.905-3.904-10.237-3.904-14.142,0l-8.768,8.768c-3.905,3.906-3.905,10.238,0,14.143
			c1.952,1.952,4.512,2.929,7.071,2.929c2.559,0,5.118-0.977,7.072-2.929l8.767-8.768C304.208,139,304.208,132.668,300.303,128.763z
			"/>
	</g>
</g>
<g>
	<g>
		<path d="M411.225,137.531l-8.768-8.768c-3.905-3.904-10.237-3.904-14.142,0c-3.905,3.906-3.905,10.238,0,14.143l8.767,8.768
			c1.952,1.952,4.512,2.929,7.071,2.929c2.559,0,5.118-0.977,7.072-2.929C415.13,147.768,415.13,141.436,411.225,137.531z"/>
	</g>
</g>
<g>
	<g>
		<path d="M300.302,26.611l-8.767-8.768c-3.906-3.904-10.238-3.904-14.143,0c-3.905,3.906-3.905,10.238,0,14.143l8.768,8.767
			c1.952,1.953,4.512,2.929,7.071,2.929s5.119-0.977,7.071-2.929C304.207,36.848,304.207,30.516,300.302,26.611z"/>
	</g>
</g>
<g>
	<g>
		<path d="M459.32,468.39c-0.13-0.64-0.32-1.26-0.57-1.87c-0.25-0.6-0.56-1.18-0.92-1.72c-0.36-0.55-0.78-1.059-1.24-1.53
			c-0.46-0.46-0.97-0.87-1.52-1.24c-0.54-0.359-1.12-0.67-1.73-0.92c-0.6-0.25-1.23-0.439-1.87-0.569c-1.29-0.261-2.61-0.261-3.91,0
			c-0.63,0.13-1.26,0.319-1.87,0.569c-0.6,0.25-1.18,0.561-1.72,0.92c-0.55,0.37-1.06,0.78-1.52,1.24
			c-0.46,0.47-0.88,0.98-1.25,1.53c-0.36,0.54-0.66,1.12-0.91,1.72c-0.25,0.61-0.45,1.23-0.58,1.87c-0.13,0.65-0.19,1.311-0.19,1.96
			c0,0.65,0.06,1.31,0.19,1.95c0.13,0.64,0.33,1.269,0.58,1.87c0.25,0.599,0.56,1.189,0.92,1.729c0.36,0.541,0.78,1.061,1.24,1.521
			c1.86,1.86,4.44,2.93,7.07,2.93c0.65,0,1.31-0.071,1.95-0.201c0.64-0.13,1.27-0.319,1.87-0.569c0.61-0.25,1.19-0.561,1.73-0.92
			c0.55-0.36,1.06-0.78,1.52-1.24c0.46-0.46,0.88-0.981,1.24-1.521c0.36-0.54,0.67-1.129,0.92-1.729c0.25-0.6,0.44-1.23,0.57-1.87
			c0.13-0.639,0.2-1.3,0.2-1.95C459.52,469.701,459.45,469.04,459.32,468.39z"/>
	</g>
</g>
<g>
	<g>
		<path d="M409.518,460.347H61.917c-5.523,0-10,4.478-10,10c0,5.522,4.477,10,10,10h347.601c5.523,0,10-4.478,10-10
			C419.518,464.825,415.041,460.347,409.518,460.347z"/>
	</g>
</g>
<g>
	<g>
		<path d="M501.342,427.919h-17.831v-93.905H502c3.993,0,7.604-2.376,9.184-6.043c1.58-3.668,0.827-7.924-1.917-10.826
			l-32.771-34.673v-85.173c0-5.523-4.477-10-10-10H424.04c-5.523,0-10,4.477-10,10v19.091l-34.324-36.317
			c-1.889-1.998-4.518-3.131-7.268-3.131s-5.379,1.133-7.267,3.131L235.628,317.145c-2.743,2.902-3.497,7.158-1.917,10.826
			c1.58,3.667,5.191,6.043,9.184,6.043h18.489v51.254c-13.684-19.237-36.264-31.825-61.753-31.825c-2.083,0-4.152,0.084-6.204,0.249
			V319.92c41.858-4.961,74.428-40.668,74.428-83.839c0-22.514-8.983-44.002-24.827-59.798c0.258-2.268,0.388-4.554,0.388-6.842
			c0-33.078-26.911-59.989-59.989-59.989c-33.079,0-59.99,26.911-59.99,59.989c0,2.287,0.13,4.573,0.388,6.842
			c-1.688,1.683-3.297,3.43-4.827,5.236v-38.708c0-32.808-26.691-59.499-59.5-59.499C26.689,83.312,0,110.004,0,142.813v96.084
			c0,29.402,21.436,53.89,49.5,58.659v59.139c-6.605,2.02-12.905,4.964-18.773,8.789c-4.807-2.176-10.029-3.305-15.412-3.305
			c-2.434,0-4.872,0.236-7.243,0.702C3.382,363.804,0,367.915,0,372.694V502c0,5.523,4.477,10,10,10h491.342c5.523,0,10-4.477,10-10
			v-64.081C511.342,432.397,506.865,427.919,501.342,427.919z M434.04,207.298h22.457v54.012l-22.457-23.76V207.298z M372.448,201.5
			l106.341,112.514h-20.022l-79.094-82.649c-1.886-1.971-4.496-3.086-7.225-3.086c-2.728,0-5.338,1.115-7.225,3.086l-79.095,82.649
			h-20.022L372.448,201.5z M439.271,343.379h-46.503c-5.523,0-10,4.478-10,10v74.54H281.385v-93.905h9.016
			c0.086,0,0.171-0.001,0.257-0.003c2.187-0.055,4.199-0.813,5.82-2.055l0.027-0.021c0.054-0.041,0.107-0.083,0.159-0.125
			c0.015-0.012,0.03-0.024,0.045-0.036c0.046-0.038,0.091-0.075,0.137-0.114c0.021-0.017,0.041-0.035,0.062-0.052
			c0.04-0.034,0.079-0.069,0.119-0.104c0.024-0.021,0.048-0.042,0.071-0.063c0.035-0.032,0.07-0.064,0.105-0.096
			c0.027-0.025,0.054-0.05,0.08-0.075c0.033-0.031,0.065-0.063,0.097-0.094c0.027-0.026,0.053-0.051,0.079-0.077
			c0.034-0.034,0.068-0.069,0.101-0.103c0.021-0.022,0.043-0.044,0.065-0.066l74.823-78.186l74.823,78.186
			c0.021,0.022,0.043,0.044,0.065,0.066c0.034,0.034,0.067,0.069,0.101,0.103c0.026,0.026,0.053,0.052,0.079,0.077
			c0.032,0.032,0.065,0.063,0.098,0.094c0.027,0.025,0.053,0.05,0.08,0.075c0.035,0.032,0.07,0.064,0.105,0.096
			c0.023,0.021,0.047,0.042,0.071,0.063c0.039,0.035,0.079,0.07,0.119,0.104c0.02,0.018,0.041,0.035,0.062,0.052
			c0.045,0.038,0.091,0.076,0.137,0.114c0.015,0.012,0.03,0.024,0.045,0.036c0.053,0.042,0.106,0.084,0.159,0.125l0.027,0.021
			c1.621,1.242,3.633,2,5.82,2.055c0.085,0.002,0.171,0.003,0.257,0.003h9.016v93.905h-14.24v-74.54
			C449.271,347.857,444.794,343.379,439.271,343.379z M429.271,363.379v64.54h-26.503v-64.54H429.271z M141.117,187.491
			c2.74-2.389,3.968-6.075,3.208-9.63c-0.588-2.749-0.886-5.582-0.886-8.42c0-22.05,17.939-39.989,39.99-39.989
			s39.989,17.939,39.989,39.989c0,2.84-0.298,5.673-0.886,8.419c-0.761,3.555,0.467,7.242,3.207,9.631
			c14.056,12.252,22.117,29.962,22.117,48.59c0,32.125-23.634,58.834-54.428,63.653v-32.805c0.687-0.413,1.335-0.914,1.927-1.506
			l26.752-26.752c3.905-3.905,3.905-10.237,0-14.143c-3.905-3.904-10.237-3.904-14.143,0l-14.537,14.537v-41.723
			c0-5.522-4.477-10-10-10s-10,4.478-10,10v41.724l-14.537-14.537c-3.905-3.904-10.237-3.904-14.143,0
			c-3.905,3.905-3.905,10.237,0,14.143l26.752,26.752c0.592,0.592,1.241,1.094,1.928,1.507v32.805
			C142.635,294.915,119,268.206,119,236.081C119,217.453,127.061,199.743,141.117,187.491z M107.804,273.602
			c12.424,24.938,36.826,42.904,65.624,46.318v38.208c-5.076,1.896-9.948,4.355-14.554,7.357c-4.807-2.176-10.03-3.305-15.412-3.305
			c-8.811,0-17.289,3.142-23.954,8.672c-13.441-11.277-30.229-17.409-48.025-17.409c-0.663,0-1.324,0.009-1.984,0.026v-55.913H69.5
			C85.212,294.886,98.846,286.035,107.804,273.602z M20,238.897v-96.084c0-21.78,17.72-39.5,39.5-39.5
			c21.78,0,39.5,17.718,39.5,39.499v96.085c0,18.327-12.546,33.778-29.5,38.217V224.24l20.472-20.471
			c3.905-3.905,3.906-10.237,0-14.143c-3.905-3.903-10.237-3.904-14.142,0l-6.33,6.33v-61.708c0-5.522-4.477-10-10-10
			s-10,4.478-10,10v46.635l-6.33-6.33c-3.905-3.904-10.237-3.904-14.143,0c-3.905,3.905-3.905,10.237,0,14.143L49.5,209.169v16.74
			l-6.33-6.33c-3.905-3.904-10.237-3.904-14.142,0c-3.905,3.905-3.905,10.237,0,14.143l20.472,20.47v22.922
			C32.546,272.674,20,257.223,20,238.897z M20,382.813c1.961,0.544,3.817,1.433,5.5,2.644c3.62,2.606,8.528,2.5,12.032-0.261
			c9.757-7.689,21.498-11.753,33.952-11.753c14.941,0,28.912,5.896,39.339,16.603c1.71,1.756,4.005,2.823,6.45,2.998
			c0.696,0.05,1.394,0.142,2.074,0.273c3.811,0.737,7.701-0.796,9.984-3.934c3.283-4.511,8.566-7.203,14.132-7.203
			c3.685,0,7.208,1.133,10.186,3.277c3.62,2.605,8.527,2.499,12.032-0.262c9.757-7.689,21.497-11.753,33.952-11.753
			c30.471,0,55.288,24.398,55.524,54.477H20V382.813z M491.342,492H20v-44.081h471.342V492z"/>
	</g>
</g>
<g>
	<g>
		<path d="M357.193,343.379h-56.159c-5.523,0-10,4.478-10,10v38.996c0,5.523,4.477,10,10,10h56.159c5.523,0,10-4.477,10-10v-38.996
			C367.193,347.857,362.716,343.379,357.193,343.379z M347.194,382.375h-36.159v-18.996h36.159V382.375z"/>
	</g>
</g>
<g>
</g>
<g>
</g>
<g>
</g>
<g>
</g>
<g>
</g>
<g>
</g>
<g>
</g>
<g>
</g>
<g>
</g>
<g>
</g>
<g>
</g>
<g>
</g>
<g>
</g>
<g>
</g>
<g>
</g>
</svg>
