<svg height="512pt" viewBox="-71 0 512 512" width="512pt" xmlns="http://www.w3.org/2000/svg"><path d="m342.3125 231.488281c-.210938-.425781-.441406-.847656-.695312-1.257812-16.257813-26.226563-39.019532-48.152344-65.824219-63.40625-10.871094-6.1875-22.347657-11.207031-34.210938-15.046875-13.671875-4.449219-27.871093-7.277344-42.199219-8.414063v-30.132812h19.691407c54.289062 0 98.460937-44.167969 98.460937-98.460938 0-8.15625-6.613281-14.769531-14.769531-14.769531h-34.460937c-35.296876 0-66.308594 18.671875-83.691407 46.652344-17.386719-27.980469-48.398437-46.652344-83.695312-46.652344h-34.460938c-8.15625 0-14.769531 6.613281-14.769531 14.769531 0 54.292969 44.171875 98.460938 98.460938 98.460938h19.695312v30.128906c-4.566406.417969-9.113281.890625-13.644531 1.597656-25.535157 3.949219-49.957031 13.210938-71.800781 27.363281-14.984376 9.710938-28.597657 21.765626-40.1875 35.332032-3.277344 3.835937-6.503907 7.796875-9.453126 11.886718-20.816406 28.878907-32.640624 62.566407-34.496093 97.980469-.597657 11.226563-.1718752 22.507813 1.265625 33.660157 5.015625 39.050781 22.328125 75.386718 50.011718 104.164062.390626.410156.808594.785156 1.242188 1.140625 33.53125 34.234375 80.238281 55.515625 131.832031 55.515625 101.796875 0 184.613281-82.816406 184.613281-184.617188 0-35.09375-9.84375-67.929687-26.914062-95.894531zm-196.503906-54.265625c13.988281-3.613281 28.507812-5.253906 42.949218-4.855468 4.082032.109374 8.15625.382812 12.214844.800781 44.339844 4.671875 83.171875 28.105469 108.382813 62.195312l-71.078125 60.308594c-2.339844 1.984375-5.316406 3.078125-8.386719 3.078125h-3.683594c-7.148437 0-12.960937-5.816406-12.960937-12.960938 0-23.433593-19.066406-42.5-42.5-42.5h-13.167969c-4.261719 0-8.25-2.09375-10.667969-5.601562l-33.230468-48.179688c10.117187-5.226562 20.875-9.375 32.128906-12.285156zm122.496094-147.683594h18.097656c-6.777344 30.929688-34.394532 54.152344-67.328125 54.152344h-18.101563c6.78125-30.929687 34.394532-54.152344 67.332032-54.152344zm-118.15625 54.152344c-32.933594 0-60.550782-23.222656-67.328126-54.152344h18.097657c32.9375 0 60.550781 23.222657 67.332031 54.152344zm-69.574219 285.324219c8.199219 8.203125 8.726562 21.535156 1.203125 30.359375l-19.640625 23.023438c-18.074219-23.246094-29.691407-51.753907-32.121094-82.800782-.933594-11.96875-.488281-24.042968 1.328125-35.910156 2.972656-19.316406 9.527344-37.464844 18.953125-53.75l20.375 16.300781c7.757813 6.203125 10.488281 16.570313 6.800781 25.792969l-8.394531 20.984375c-7.722656 19.3125-3.210937 41.296875 11.496094 56zm104.039062 113.445313c-39.0625 0-74.792969-14.523438-102.089843-38.445313l21.726562-25.472656c17.453125-20.464844 16.226562-51.394531-2.789062-70.414063-6.34375-6.339844-8.289063-15.816406-4.957032-24.140625l8.394532-20.988281c8.554687-21.390625 2.21875-45.433594-15.773438-59.828125l-21.640625-17.316406c6.453125-7.4375 13.601563-14.253907 21.34375-20.351563l33.761719 48.953125c7.933594 11.503907 21.011718 18.371094 34.988281 18.371094h13.167969c7.144531 0 12.960937 5.8125 12.960937 12.960937 0 23.433594 19.0625 42.5 42.496094 42.5h3.6875c10.0625 0 19.824219-3.585937 27.496094-10.09375l67.371093-57.164062c9.566407 20.128906 14.929688 42.625 14.929688 66.351562 0 85.511719-69.566406 155.078126-155.074219 155.078126zm0 0"/></svg>